<?xml version="1.0" encoding="utf-8"?>
<!-- Generator: Adobe Illustrator 23.0.1, SVG Export Plug-In . SVG Version: 6.00 Build 0)  -->
<svg version="1.1" id="Layer_1" xmlns="http://www.w3.org/2000/svg" xmlns:xlink="http://www.w3.org/1999/xlink" x="0px" y="0px"
	 viewBox="0 0 39.62 38.09" style="enable-background:new 0 0 39.62 38.09;" xml:space="preserve">
<style type="text/css">
	.st0{fill:#143980;}
	.st1{fill-rule:evenodd;clip-rule:evenodd;fill:#143980;}
</style>
<g>
	<g>
		<path class="st0" d="M27.07,18.65c0.02-0.15,0.07-0.2,0.18-0.23c0.07-0.02,0.1-0.02,0.18-0.04c1.21-0.25,2.42-1.37,2.5-2.66
			c0.04-0.72-0.2-1.36-0.61-1.81c-0.09-0.09-0.06-0.25,0.05-0.33c0.05-0.03,0.1-0.06,0.15-0.1c3.85-2.56,6.94-7.73,7.24-8.25
			c0.01-0.02,0.05-0.03,0.07-0.01c1.09,0.86,1.33,2.64,0.29,4.12c-0.72,1.02-2.33,2.18-4.05,3.23c0.02,0.2,0.04,0.4,0.04,0.6
			c3.58-0.83,5.62-3.37,5.93-3.78c0.02-0.03,0.07-0.02,0.09,0.01c0.76,1.28,0.38,3.09-0.87,3.89c-1.12,0.71-2.95,1.14-5.24,1.45
			c-0.03,0.19-0.06,0.37-0.1,0.56c3.5,0.54,6.12-0.9,6.55-1.15c0.03-0.02,0.07,0.01,0.08,0.05c0.33,1.62-0.48,2.98-2.07,3.29
			c-1.61,0.32-5.04-0.63-5.04-0.63l0,0c-0.07,0.18-0.15,0.35-0.23,0.53c2.28,1.55,5.52,1.38,6.01,1.35c0.03,0,0.07,0.03,0.07,0.07
			c0.09,1.97-1.49,2.53-2.93,2.29c-1.22-0.2-2.9-1.18-4.05-2.26c-0.12,0.16-0.25,0.3-0.39,0.44c1.06,2.29,3.8,3.27,4.7,3.36
			c0.04,0,0.07,0.06,0.05,0.11c-0.57,1.32-1.93,1.77-3.41,0.85c-0.86-0.54-1.88-1.9-2.52-3.37c-0.17,0.1-0.35,0.18-0.53,0.26
			c0.27,2.85,2.54,4.71,2.95,5.02c0.02,0.01,0.03,0.03,0.03,0.05c0,0.02,0,0.05-0.01,0.06c-0.75,1.07-2.41,1.09-3.33-0.45
			c-0.54-0.91-0.87-2.55-0.97-4.43c-0.17,0-0.39,0.02-0.64,0.08c-0.1,0.02-0.19-0.05-0.19-0.18V18.65z"/>
		<path class="st0" d="M12.55,18.65c-0.02-0.15-0.07-0.2-0.18-0.23c-0.07-0.02-0.1-0.02-0.18-0.04c-1.21-0.25-2.42-1.37-2.5-2.66
			c-0.04-0.72,0.2-1.36,0.61-1.81c0.09-0.09,0.06-0.25-0.05-0.33c-0.05-0.03-0.1-0.06-0.15-0.1c-3.85-2.56-6.94-7.73-7.24-8.25
			C2.85,5.22,2.81,5.21,2.79,5.23C1.7,6.1,1.46,7.87,2.5,9.35c0.72,1.02,2.33,2.18,4.05,3.23c-0.02,0.2-0.04,0.4-0.04,0.6
			c-3.58-0.83-5.62-3.37-5.93-3.78C0.56,9.38,0.52,9.39,0.5,9.42c-0.76,1.28-0.38,3.09,0.87,3.89c1.12,0.71,2.95,1.14,5.24,1.45
			c0.03,0.19,0.06,0.37,0.1,0.56c-3.5,0.54-6.12-0.9-6.55-1.15c-0.03-0.02-0.07,0.01-0.08,0.05c-0.33,1.62,0.48,2.98,2.07,3.29
			c1.61,0.32,5.04-0.63,5.04-0.63l0,0c0.07,0.18,0.15,0.35,0.23,0.53c-2.28,1.55-5.52,1.38-6.01,1.35c-0.03,0-0.07,0.03-0.07,0.07
			c-0.09,1.97,1.49,2.53,2.93,2.29c1.22-0.2,2.9-1.18,4.05-2.26c0.12,0.16,0.25,0.3,0.39,0.44c-1.06,2.29-3.8,3.27-4.7,3.36
			c-0.04,0-0.07,0.06-0.05,0.11c0.57,1.32,1.93,1.77,3.41,0.85c0.86-0.54,1.88-1.9,2.52-3.37c0.17,0.1,0.35,0.18,0.53,0.26
			c-0.27,2.85-2.54,4.71-2.95,5.02c-0.02,0.01-0.03,0.03-0.03,0.05c0,0.02,0,0.05,0.01,0.06c0.75,1.07,2.41,1.09,3.33-0.45
			c0.54-0.91,0.87-2.55,0.97-4.43c0.17,0,0.39,0.02,0.64,0.08c0.1,0.02,0.19-0.05,0.19-0.18V18.65z"/>
		<polygon class="st0" points="32.32,27.36 32.32,27.36 32.32,27.36 		"/>
		<polygon class="st0" points="12.38,6.42 12.38,6.42 12.38,6.42 		"/>
		<path class="st0" d="M12.38,6.42h2.67c2.25,0,3.26-1.38,3.56-2.57h2.28c0.31,1.2,1.32,2.57,3.56,2.57h2.67
			c0,0,0.47-0.63,0.58-0.95c0.42-1.13-0.12-1.66-0.9-1.66l-1.02,0.92l-1.02-0.92c-0.79,0-1.33,0.53-0.9,1.66
			c0.05,0.14,0.18,0.36,0.3,0.54c-0.95-0.13-2.16-0.78-2.42-2.17c0,0,0.7-1.11,0.88-1.56C23.26,0.66,22.45,0,21.28,0l-1.52,1.79
			L18.23,0c-1.18,0-1.99,0.66-1.35,2.28c0.18,0.45,0.88,1.56,0.88,1.56c-0.27,1.39-1.48,2.04-2.42,2.17c0.12-0.19,0.25-0.4,0.3-0.54
			c0.42-1.13-0.12-1.66-0.9-1.66l-1.02,0.92L12.7,3.81c-0.79,0-1.32,0.53-0.9,1.66C11.91,5.78,12.38,6.42,12.38,6.42z"/>
		<path class="st0" d="M16.71,13.89h2.48c0.12,0,0.21-0.11,0.17-0.23c-0.54-1.98-1.51-3.57-2.55-4.48c0.83-0.39,1.7-1.46,1.65-2.12
			c-2.66,0.97-7.95-0.54-8.37,1.73c-0.09,0.48,0.14,1.21,0.39,1.43c0.04-0.15,0.28-0.65,1.02-0.76c2.44-0.37,4.62,1.97,5.03,4.28
			C16.56,13.83,16.63,13.89,16.71,13.89z"/>
		<path class="st0" d="M29.46,8.8L29.46,8.8c-0.43-2.27-5.71-0.77-8.37-1.73c-0.05,0.66,0.82,1.73,1.65,2.12
			c-1.05,0.91-2.01,2.49-2.55,4.47c-0.03,0.12,0.06,0.23,0.18,0.23h2.48c0.09,0,0.16-0.06,0.18-0.15c0.42-2.31,2.59-4.65,5.03-4.28
			c0.74,0.11,0.97,0.61,1.02,0.76C29.32,10.02,29.55,9.29,29.46,8.8z"/>
		<g>
			<path class="st0" d="M22.94,17.03c-1.39-0.41-3.13-0.41-3.13-0.41s-1.74,0-3.13,0.41c-1.53,0.45-2.98-0.26-3.54-0.59
				c-0.1-0.06-0.22,0.03-0.2,0.14c0.14,0.68,0.72,2.32,3.1,2.87c2.26,0.53,3.3,3.11,3.64,4.17c0.04,0.12,0.22,0.12,0.26,0
				c0.34-1.06,1.37-3.64,3.64-4.17c2.39-0.56,2.96-2.2,3.1-2.87c0.02-0.11-0.1-0.2-0.2-0.14C25.92,16.77,24.47,17.49,22.94,17.03z"
				/>
			<path class="st0" d="M22.09,21.63c0.14,0.11,0.32,0.19,0.51,0.19c0.48,0,0.88-0.39,0.88-0.88c0-0.12-0.03-0.24-0.08-0.35
				C22.88,20.82,22.44,21.19,22.09,21.63z"/>
			<path class="st0" d="M24.41,20.25c0.09,0.22,0.15,0.45,0.15,0.69c0,1.08-0.88,1.96-1.96,1.96c-0.4,0-0.79-0.13-1.11-0.36
				c-0.21,0.4-0.37,0.78-0.48,1.06c0.47,0.29,1.01,0.46,1.59,0.46c1.73,0,3.13-1.4,3.13-3.13c0-0.41-0.11-0.79-0.26-1.16
				C25.17,19.96,24.81,20.12,24.41,20.25z"/>
			<path class="st0" d="M18.13,22.56c-0.32,0.22-0.7,0.35-1.1,0.35c-1.08,0-1.96-0.88-1.96-1.96c0-0.24,0.06-0.47,0.15-0.69
				c-0.4-0.13-0.75-0.29-1.06-0.47c-0.15,0.37-0.26,0.75-0.26,1.16c0,1.73,1.4,3.13,3.13,3.13c0.57,0,1.1-0.17,1.57-0.45
				C18.5,23.33,18.35,22.95,18.13,22.56z"/>
			<path class="st0" d="M16.24,20.6c-0.05,0.1-0.07,0.22-0.07,0.34c0,0.48,0.39,0.88,0.88,0.88c0.19,0,0.36-0.07,0.5-0.18
				C17.19,21.2,16.76,20.83,16.24,20.6z"/>
		</g>
		<path class="st1" d="M34.93,2.93c0.04-0.02,0.05-0.08,0.01-0.1c-1.08-0.51-0.77-1.16-1.4-1.76c-0.67-0.64-1.7-0.65-1.93-0.66
			c-1.16-0.07-1.53,0.12-1.65,0.22c-0.22,0.2-0.58,0.58-0.84,1.37c-0.24,0.78-0.05,1.08,0.05,1.18c0.03,0.03,0.08,0.04,0.12,0.03
			c0.17-0.05,0.67-0.19,0.69-0.2c0.27,0.06,0.8,0.32,0.69,1.41c-0.14,1.44-2.14,1.74-2.69,1.81l-0.06,0.18
			c0.94,0,3.45-0.28,3.82-1.59c0.36-1.31-0.3-1.87-0.3-1.87c-0.16-0.18-0.88-0.2-1.34-0.07c-0.02,0.02-0.25-0.31,0-1.02v0
			c0.43-1.24,0.63-1.16,1.5-1.15c0.09,0,0.19,0.03,0.27,0.08c0.57,0.43,0.52,1.17,0.66,1.76c0.44,1.84,1.38,1.77,2.12,2.03
			c0.08,0.03,0.14-0.08,0.07-0.13c-0.45-0.35-1.14-0.99-1.03-1.57c0.01-0.04,0.05-0.05,0.08-0.04C33.95,2.93,34.41,3.14,34.93,2.93z
			"/>
		<path class="st1" d="M4.58,2.93c-0.04-0.02-0.05-0.08-0.01-0.1c1.08-0.51,0.77-1.16,1.4-1.76c0.67-0.64,1.7-0.65,1.93-0.66
			c1.16-0.07,1.53,0.12,1.65,0.22c0.22,0.2,0.58,0.58,0.84,1.37c0.24,0.78,0.05,1.08-0.05,1.18c-0.03,0.03-0.08,0.04-0.12,0.03
			c-0.17-0.05-0.67-0.19-0.69-0.2c-0.27,0.06-0.8,0.32-0.69,1.41c0.14,1.44,2.14,1.74,2.69,1.81l0.06,0.18
			c-0.94,0-3.45-0.28-3.82-1.59c-0.36-1.31,0.3-1.87,0.3-1.87c0.16-0.18,0.88-0.2,1.34-0.07c0.02,0.02,0.25-0.31,0-1.02v0
			C8.95,0.61,8.75,0.7,7.89,0.71c-0.09,0-0.19,0.03-0.27,0.08C7.05,1.23,7.09,1.96,6.95,2.55C6.51,4.39,5.57,4.32,4.84,4.58
			C4.75,4.6,4.7,4.49,4.77,4.44C5.22,4.09,5.9,3.45,5.8,2.87C5.79,2.84,5.75,2.82,5.72,2.84C5.55,2.93,5.1,3.14,4.58,2.93z"/>
		<path class="st0" d="M31.15,29.75l-1.18,0.92l0,0l-1.18-0.92c-0.47,0.28-0.81,0.72-0.95,1.24c-0.71,0.1-2.63-0.33-2.45-0.61
			c2.08-2.93,0.54-4.69-1.36-4.64c-0.33,0.45-0.95,0.99-1.73,1.39c-1.55,0.8-2.32,1.41-2.55,1.6c-0.23-0.2-1-0.81-2.55-1.6
			c-0.78-0.4-1.4-0.95-1.74-1.39c-1.88-0.01-3.37,1.74-1.31,4.65c0.19,0.28-1.8,0.73-2.73,0.62c-0.24-0.25-0.6-0.41-0.99-0.41
			c-0.17,0-0.33,0.03-0.49,0.09c0,0-3.65-3.46-3.72-3.49l0.03-0.07c0.21-0.39-0.11-0.81-0.31-0.78c0.23-0.28,0.24-1.51-1.05-1.79
			c0.04,0.25,0.06,0.75,0.06,0.75s-1-0.54-1.5-0.07c-0.44,0.52,0.17,1.47,0.17,1.47s-0.51,0.01-0.76-0.01
			c0.37,1.26,1.62,1.17,1.89,0.92c-0.02,0.2,0.43,0.48,0.81,0.26l0.17-0.08c0.03,0.04,3.59,3.4,3.59,3.4
			c-0.16,0.24-0.24,0.54-0.19,0.86c0.08,0.5,0.5,0.91,1.02,1.01c0.37,0.07,0.72,0,1-0.16l0.94,0.87c0.08,0.08,0.2,0.12,0.32,0.11
			c0.23-0.02,0.4-0.2,0.39-0.42c-0.01-0.1-0.06-0.18-0.12-0.24c-0.02-0.02-0.96-0.89-0.96-0.89c0.78-0.55,2.23-0.93,3.43-0.93
			c0.21,0,0.31-0.18,0.24-0.35c-0.55-1.31,0.63-2.26,1.84-1.49c0.27,0.17,0.53,0.43,0.79,0.97c-1.12,0.46-3.19,2.57-3.31,3.07
			c0.37,1.35,1.53,1.76,1.53,1.76c-0.29-0.64-0.17-1.94,1.59-2.83c-1.08,1.08-1.5,2.05-1.21,2.97c0.26,0.85,1.12,1.19,1.76,1.21
			c-0.46-1.4-0.25-2.67,0.69-3.68c-0.41,1.11-0.98,4.51,0.67,5.08c0,0,0,0,0,0c0,0,0,0,0,0c1.65-0.57,1.08-3.97,0.67-5.08
			c0.95,1.01,1.15,2.28,0.69,3.68c0.64-0.01,1.5-0.36,1.76-1.21c0.29-0.92-0.13-1.9-1.21-2.97c1.76,0.89,1.88,2.19,1.59,2.83
			c0,0,1.16-0.41,1.53-1.76c-0.12-0.49-2.11-2.53-3.25-3.05c0.26-0.57,0.53-0.83,0.8-1c1.21-0.77,2.39,0.18,1.84,1.49
			c-0.07,0.18,0.03,0.35,0.24,0.35c1.36,0,3.04,0.49,3.7,1.15c0.42,0.64,1.21,1.04,2.09,0.96c1.01-0.1,1.83-0.85,1.94-1.79
			C32.25,30.88,31.83,30.15,31.15,29.75z"/>
		<polygon class="st0" points="30.77,28.96 29.98,28.12 29.19,28.96 29.98,29.7 		"/>
	</g>
</g>
</svg>
