<?xml version="1.0" standalone="no"?>
<!DOCTYPE svg PUBLIC "-//W3C//DTD SVG 20010904//EN"
 "http://www.w3.org/TR/2001/REC-SVG-20010904/DTD/svg10.dtd">
<svg version="1.0" xmlns="http://www.w3.org/2000/svg"
 width="640.000000pt" height="640.000000pt" viewBox="0 0 640.000000 640.000000"
 preserveAspectRatio="xMidYMid meet">
<metadata>
Created by potrace 1.11, written by Peter Selinger 2001-2013
</metadata>
<g transform="translate(0.000000,640.000000) scale(0.100000,-0.100000)"
fill="#000000" stroke="none">
<path d="M2826 6252 c-57 -19 -112 -71 -125 -120 -29 -103 0 -203 114 -392
l54 -91 -16 -52 c-8 -28 -21 -59 -29 -68 -8 -8 -14 -20 -14 -25 -1 -28 -121
-130 -190 -161 -67 -31 -130 -48 -130 -36 0 3 11 30 26 60 53 113 39 220 -34
260 -68 38 -92 34 -163 -27 -34 -30 -70 -64 -80 -74 -16 -17 -21 -17 -36 -5
-23 18 -90 78 -120 107 -35 34 -92 31 -144 -7 -82 -61 -73 -188 26 -336 l34
-52 278 2 c177 1 288 6 306 13 15 6 27 9 27 7 0 -10 118 40 167 71 77 49 136
116 183 205 22 43 38 79 35 79 -3 0 -1 8 4 19 9 17 25 18 195 19 102 0 185 -2
184 -6 -1 -4 2 -16 6 -27 4 -11 13 -33 19 -48 16 -44 85 -146 115 -172 15 -13
41 -35 57 -49 39 -34 118 -71 197 -92 51 -14 114 -18 328 -19 146 -1 270 0
277 2 12 5 70 90 90 133 34 71 38 170 9 214 -21 33 -56 56 -100 66 -40 9 -54
1 -128 -68 -84 -79 -82 -78 -129 -35 -124 113 -123 112 -169 102 -22 -5 -49
-15 -60 -21 -29 -19 -60 -82 -60 -125 0 -45 29 -137 56 -178 l18 -27 -35 6
c-39 8 -52 13 -132 52 -50 24 -109 73 -155 129 -19 22 -61 116 -65 145 -3 21
66 154 103 197 5 7 10 15 10 19 0 4 9 26 20 48 22 48 30 80 37 158 10 112 -57
190 -185 211 -55 10 -66 9 -76 -4 -20 -29 -133 -161 -198 -233 l-37 -41 -27
30 c-14 17 -45 52 -68 79 -22 26 -49 58 -60 70 -10 11 -34 40 -54 64 -31 38
-39 42 -73 40 -21 -1 -58 -8 -83 -16z"/>
<path d="M1247 6204 c-1 -1 -27 -5 -57 -9 -74 -9 -149 -39 -203 -80 -35 -27
-56 -55 -89 -122 -42 -87 -99 -156 -139 -168 -48 -15 16 -49 76 -40 53 8 64
11 71 18 20 20 34 6 29 -29 -6 -52 -46 -114 -110 -172 -57 -52 -70 -78 -35
-68 11 3 29 8 39 11 11 3 28 7 38 9 43 9 116 51 150 87 61 64 78 108 132 342
32 142 70 178 183 172 98 -4 125 -28 176 -155 23 -58 36 -141 26 -172 -5 -16
-14 -18 -83 -13 -124 8 -152 -6 -192 -95 -16 -35 -20 -62 -18 -120 3 -93 24
-150 73 -201 36 -36 134 -93 181 -104 11 -3 54 -14 95 -25 116 -30 271 -43
277 -23 5 13 -15 20 -68 27 -21 3 -72 17 -115 31 -165 55 -249 142 -255 266
-5 86 9 136 47 175 39 38 61 41 128 19 52 -18 71 -13 84 23 30 87 -32 262
-126 359 -31 32 -50 42 -88 48 -44 7 -221 14 -227 9z"/>
<path d="M4921 6198 c-50 -9 -77 -24 -120 -70 -54 -58 -111 -194 -112 -268 -1
-64 0 -73 16 -93 13 -18 16 -18 68 -3 30 9 64 16 75 16 32 0 79 -46 95 -93 17
-52 14 -150 -6 -199 -18 -44 -76 -105 -129 -137 -47 -28 -164 -68 -225 -77
-74 -10 -101 -44 -31 -38 95 7 173 16 179 19 3 2 21 7 40 10 146 26 283 97
331 174 27 42 46 132 41 195 -5 65 -38 141 -72 163 -28 19 -148 27 -188 12
-42 -16 -51 68 -18 167 25 75 58 135 87 157 29 22 135 31 178 15 49 -18 95
-95 106 -180 6 -41 16 -96 28 -147 11 -46 66 -152 93 -179 15 -15 44 -37 63
-49 38 -23 140 -56 140 -45 0 3 5 1 12 -6 17 -17 38 -15 38 3 0 8 -4 15 -8 15
-7 0 -89 79 -117 114 -22 27 -36 59 -41 96 -6 43 1 49 38 29 44 -24 168 -15
168 12 0 4 -11 10 -25 13 -14 4 -25 11 -25 16 0 6 -7 10 -14 10 -21 0 -58 53
-102 143 -20 43 -52 91 -71 107 -57 51 -140 86 -223 97 -61 8 -229 9 -269 1z"/>
<path d="M420 5398 c-118 -116 -155 -312 -92 -488 64 -179 215 -332 547 -552
188 -125 186 -123 181 -150 -3 -13 -5 -33 -5 -44 -1 -26 -16 -24 -161 26 -182
62 -406 189 -554 315 -74 63 -177 166 -215 215 -21 27 -53 42 -49 23 0 -5 -6
-24 -15 -45 -32 -72 -50 -211 -33 -265 3 -10 8 -31 10 -48 8 -46 62 -146 103
-191 70 -76 188 -139 368 -194 87 -27 293 -74 378 -86 15 -2 42 -6 60 -9 17
-2 53 -7 80 -11 36 -5 47 -11 47 -24 0 -10 3 -31 6 -47 4 -21 2 -30 -8 -30 -7
-1 -45 -4 -85 -8 -309 -28 -601 26 -897 165 -37 18 -70 29 -73 26 -13 -12 -11
-186 2 -228 49 -166 161 -269 329 -305 65 -14 316 -6 396 13 14 3 32 6 40 6 8
0 53 9 100 19 47 10 100 21 119 24 19 3 37 8 41 10 3 2 17 6 31 8 103 20 92
22 111 -23 l17 -41 -42 -26 c-55 -34 -181 -93 -201 -93 -9 0 -16 -5 -16 -12 0
-6 -3 -9 -6 -5 -3 3 -24 -1 -47 -9 -38 -14 -186 -46 -272 -59 -57 -9 -204 -17
-307 -16 -61 0 -88 -4 -89 -12 -17 -161 84 -320 225 -354 105 -25 172 -27 271
-8 148 28 396 161 560 301 l68 57 33 -37 33 -37 -32 -52 c-66 -110 -167 -218
-267 -285 -30 -20 -57 -39 -60 -42 -37 -37 -277 -137 -372 -155 -21 -4 -38
-11 -38 -17 0 -42 94 -149 165 -186 44 -24 62 -27 145 -27 90 0 100 2 178 39
45 22 82 43 82 48 0 4 5 8 11 8 17 0 132 121 191 201 56 76 115 173 162 266
l26 53 41 -21 40 -22 -6 -49 c-4 -27 -13 -73 -21 -101 -8 -29 -16 -59 -18 -67
-2 -8 -9 -28 -16 -45 -6 -16 -11 -31 -10 -33 3 -6 -84 -158 -118 -207 -71
-102 -165 -207 -248 -275 -48 -40 -48 -47 -6 -88 54 -53 105 -75 184 -80 101
-6 188 33 270 123 64 70 140 260 163 410 8 48 17 102 21 125 2 14 7 57 10 95
3 39 8 86 9 105 2 19 4 39 4 43 1 7 37 4 98 -8 16 -2 24 2 29 18 9 27 8 318 0
345 -6 19 -56 42 -92 42 -28 0 -156 75 -208 122 -132 119 -185 266 -151 413
11 46 42 123 54 135 4 3 16 19 28 36 27 39 24 44 -78 115 -210 148 -476 409
-667 653 -35 44 -71 90 -81 101 -44 53 -101 133 -101 143 0 7 -4 12 -9 12 -8
0 -182 255 -240 353 -13 20 -24 37 -25 37 -1 0 -17 -15 -36 -32z"/>
<path d="M5885 5338 c-76 -121 -187 -282 -197 -286 -4 -2 -8 -8 -8 -13 0 -6
-5 -15 -10 -22 -10 -11 -29 -36 -90 -117 -73 -96 -117 -151 -150 -188 -9 -9
-45 -51 -80 -92 -158 -183 -385 -391 -557 -510 -46 -31 -63 -49 -63 -66 0 -12
4 -24 9 -26 19 -7 66 -97 81 -156 64 -244 -110 -489 -397 -562 -31 -8 -44 -17
-48 -33 -3 -12 -4 -96 -3 -187 l3 -165 65 0 65 0 1 -38 c2 -45 12 -152 18
-187 3 -14 7 -45 10 -70 9 -68 16 -102 27 -137 5 -17 12 -43 15 -58 8 -43 34
-116 67 -184 37 -77 122 -166 191 -200 97 -47 229 -33 308 34 70 59 70 56 -36
156 -196 185 -319 393 -373 629 -1 8 -5 34 -8 57 -6 41 -5 43 34 63 22 11 42
20 44 20 3 0 11 -15 18 -32 21 -52 100 -193 110 -196 5 -2 9 -8 9 -14 0 -12
83 -123 136 -180 190 -205 432 -255 586 -119 40 35 98 117 98 137 0 7 -19 18
-42 24 -310 76 -599 283 -704 502 l-17 37 29 33 29 34 80 -64 c89 -71 103 -82
131 -99 89 -56 179 -106 229 -128 33 -14 69 -30 80 -35 78 -36 222 -53 320
-37 143 22 252 117 279 242 12 56 14 125 4 131 -5 3 -78 7 -161 9 -166 3 -202
7 -352 36 -101 21 -201 50 -265 78 -19 8 -37 15 -40 16 -21 3 -150 82 -150 91
0 6 7 27 15 47 l14 35 58 -14 c125 -30 239 -56 268 -60 17 -2 41 -6 55 -9 102
-23 335 -34 420 -21 222 37 367 211 359 435 -4 113 -6 115 -81 76 -69 -35
-219 -94 -257 -101 -13 -3 -32 -9 -43 -15 -10 -5 -18 -8 -18 -5 0 3 -15 0 -32
-5 -18 -5 -49 -12 -68 -15 -19 -3 -37 -7 -40 -9 -40 -24 -512 -26 -536 -2 -3
2 -2 23 2 45 6 38 9 41 48 47 22 4 50 9 61 11 11 2 38 6 60 9 22 2 65 9 95 15
30 6 66 13 80 16 23 4 170 41 195 48 6 2 24 6 40 11 41 11 209 76 215 84 3 3
22 15 42 26 21 11 57 38 80 60 142 138 181 357 96 544 l-20 45 -35 -40 c-102
-115 -192 -201 -283 -268 -30 -22 -57 -43 -60 -46 -12 -14 -143 -91 -225 -132
-95 -48 -264 -112 -327 -123 -33 -6 -38 -5 -39 11 -1 11 -2 31 -3 47 -3 23 5
32 48 60 433 274 613 446 681 652 50 150 30 314 -53 423 -30 40 -70 82 -77 82
-1 0 -28 -42 -60 -92z"/>
<path d="M2928 5114 c-21 -8 -59 -16 -85 -20 -27 -3 -57 -8 -68 -11 -11 -2
-117 -6 -235 -9 -569 -11 -593 -13 -685 -35 -151 -37 -227 -115 -227 -230 1
-50 16 -114 33 -135 5 -6 7 -13 4 -16 -3 -3 2 -11 11 -19 13 -11 17 -11 24 2
17 31 57 65 94 83 97 46 319 20 434 -51 119 -72 197 -142 273 -243 72 -96 147
-257 163 -354 3 -16 9 -33 15 -39 7 -7 339 -14 422 -8 32 2 29 35 -12 155 -73
213 -191 418 -316 546 -53 55 -53 55 -31 70 112 76 195 170 224 256 22 64 14
76 -38 58z"/>
<path d="M3410 5103 c0 -33 23 -85 62 -141 40 -56 115 -127 170 -160 l27 -16
-65 -70 c-116 -125 -225 -310 -292 -496 -44 -123 -55 -171 -43 -183 11 -11
427 -15 438 -3 4 3 17 43 30 89 22 74 103 254 122 267 4 3 21 25 38 50 27 39
119 132 181 182 36 29 159 89 214 104 165 46 343 13 388 -71 7 -14 17 -25 22
-25 18 0 51 96 56 161 8 111 -39 178 -156 225 -32 12 -75 25 -97 29 -22 4 -51
8 -65 11 -14 2 -137 6 -275 9 -515 11 -569 14 -682 43 l-73 18 0 -23z"/>
<path d="M2093 3604 c-8 -22 43 -153 80 -205 98 -138 208 -209 417 -270 144
-41 232 -96 334 -208 17 -19 36 -39 41 -45 46 -50 129 -201 185 -341 21 -49
43 -90 50 -90 7 0 29 41 49 90 57 140 122 264 143 273 4 2 8 8 8 14 0 27 128
161 206 214 59 40 120 72 152 79 59 13 194 59 237 81 106 56 199 141 252 235
24 42 63 144 63 165 0 25 -28 27 -60 4 -16 -12 -30 -18 -30 -14 0 3 -6 1 -13
-5 -20 -16 -142 -60 -185 -67 -20 -3 -55 -9 -78 -13 -55 -10 -131 -4 -234 20
-194 46 -333 63 -510 62 -102 0 -289 -11 -300 -18 -3 -2 -24 -6 -46 -9 -61 -9
-82 -14 -138 -30 -175 -51 -364 -29 -539 61 -64 33 -77 35 -84 17z"/>
<path d="M2283 3058 c-19 -25 -35 -105 -35 -179 -1 -199 129 -387 321 -463 58
-22 100 -29 186 -29 60 0 88 3 140 17 6 1 34 13 63 26 37 16 50 26 43 33 -6 6
-11 17 -11 25 0 11 -46 119 -56 131 -2 2 -26 -6 -53 -18 -65 -27 -145 -36
-201 -21 -169 44 -276 213 -235 370 l13 48 -47 18 c-25 9 -61 26 -79 36 -39
21 -37 21 -49 6z"/>
<path d="M4060 3049 c-19 -11 -52 -25 -73 -31 -37 -11 -38 -13 -32 -47 4 -20
7 -64 7 -97 1 -194 -202 -343 -391 -288 -30 8 -64 22 -77 31 -24 15 -24 15
-59 -61 -19 -43 -35 -83 -35 -90 0 -10 37 -36 60 -41 3 0 29 -9 58 -19 189
-64 439 29 552 204 34 53 69 136 78 185 16 93 -10 276 -41 274 -7 0 -28 -9
-47 -20z"/>
<path d="M2619 2933 c-12 -76 3 -118 54 -157 24 -19 48 -27 75 -28 40 0 82 16
82 32 0 14 -122 120 -162 141 -41 21 -47 23 -49 12z"/>
<path d="M3735 2921 c-44 -19 -173 -136 -163 -147 4 -3 23 -12 44 -19 61 -21
124 8 162 73 13 23 17 112 5 112 -5 0 -26 -9 -48 -19z"/>
<path d="M795 2245 c2 -30 1 -55 -3 -55 -4 0 -30 8 -57 18 -153 56 -239 -26
-185 -178 7 -19 17 -41 23 -48 15 -19 4 -24 -52 -24 -43 1 -51 -2 -51 -17 0
-19 45 -85 76 -113 43 -37 158 -53 206 -27 12 6 18 6 18 0 0 -14 40 -40 70
-44 14 -3 38 2 53 10 32 16 29 18 112 -62 23 -22 107 -101 185 -175 79 -74
179 -169 222 -210 44 -41 83 -76 88 -78 4 -2 1 -17 -8 -35 -48 -96 2 -218 107
-264 45 -19 125 -20 170 -1 34 13 36 13 66 -17 100 -96 138 -125 163 -125 37
1 62 22 66 57 4 25 -6 39 -80 107 -46 44 -84 82 -84 86 0 10 115 65 180 86 30
9 62 19 70 22 17 5 34 9 70 16 14 2 41 7 60 11 19 3 68 8 109 10 96 5 109 16
91 79 -34 121 -6 201 87 249 43 22 137 16 188 -12 53 -30 107 -83 134 -131
l21 -38 -57 -33 c-32 -18 -60 -35 -63 -38 -3 -4 -39 -33 -80 -66 -151 -120
-330 -318 -330 -364 0 -21 41 -110 63 -138 51 -63 137 -133 163 -133 9 0 11 9
7 27 -14 68 -5 134 28 203 26 54 128 156 189 189 l45 25 -35 -40 c-70 -81 -82
-97 -115 -157 -60 -112 -69 -215 -27 -310 36 -82 127 -146 231 -162 40 -7 43
-6 36 11 -34 81 -42 320 -12 350 4 4 7 15 7 24 0 31 96 198 107 186 2 -2 -3
-32 -13 -67 -9 -35 -18 -80 -21 -99 -2 -19 -7 -42 -10 -50 -13 -37 -12 -297 1
-355 29 -120 87 -205 152 -221 68 -17 156 100 180 238 14 81 6 331 -12 387 -3
8 -7 30 -10 50 -8 44 -9 51 -17 73 -16 42 -16 47 -1 41 7 -3 14 -9 14 -13 0
-5 6 -15 14 -23 19 -18 74 -129 80 -158 2 -13 8 -42 13 -64 13 -57 4 -238 -14
-267 -11 -19 -11 -48 0 -48 29 0 120 30 152 50 49 30 100 93 115 142 18 58 20
146 3 185 -7 18 -13 35 -13 38 0 9 -29 69 -52 106 -22 35 -29 44 -73 92 -11
12 -27 31 -35 41 -14 18 -14 19 10 5 179 -101 269 -257 235 -407 l-8 -33 41
23 c54 31 152 124 152 145 0 5 5 14 12 21 6 6 13 17 14 24 2 7 8 27 15 43 10
26 9 35 -8 62 -46 77 -191 227 -324 338 -34 27 -159 113 -173 118 -8 3 -7 12
4 33 57 111 164 178 278 175 34 -1 98 -37 120 -68 34 -49 47 -116 31 -161 -22
-59 -20 -108 4 -109 176 -8 303 -33 437 -84 94 -36 145 -70 203 -135 25 -28
74 -66 109 -85 60 -32 68 -34 163 -34 87 0 107 3 156 26 130 61 205 180 202
319 -2 77 -54 175 -122 229 l-38 30 -34 -27 c-19 -16 -62 -50 -96 -76 l-62
-48 -88 68 c-48 38 -91 72 -94 77 -15 20 -109 -77 -144 -150 l-25 -51 -66 4
c-67 4 -73 5 -159 24 -57 12 -80 18 -80 20 0 1 -7 3 -16 5 -17 3 -69 34 -69
41 0 2 16 29 36 60 37 58 108 204 99 204 -3 0 1 15 9 33 22 55 16 211 -12 267
-55 112 -170 185 -303 191 -42 2 -49 -1 -84 -40 -61 -67 -139 -123 -291 -207
-127 -70 -281 -167 -344 -216 -21 -17 -26 -17 -35 -5 -16 22 -228 157 -340
217 -55 29 -112 61 -127 72 -14 10 -29 18 -32 18 -9 0 -52 37 -121 103 -40 39
-69 59 -86 59 -44 1 -132 -23 -178 -50 -200 -114 -218 -357 -47 -637 17 -27
34 -51 38 -53 5 -2 3 -12 -2 -22 -18 -34 -179 -76 -330 -85 -91 -6 -96 -5
-129 19 -19 14 -43 26 -52 26 -10 0 -21 5 -25 11 -4 8 -30 10 -75 6 -68 -5
-70 -5 -107 30 -56 52 -302 284 -332 313 -14 14 -70 65 -122 114 l-97 90 6 45
c4 39 1 50 -19 72 -21 23 -24 36 -24 95 1 56 -4 76 -24 109 -28 46 -41 58 -92
85 -60 32 -67 28 -63 -35z"/>
<path d="M4781 1665 c-34 -36 -59 -70 -55 -76 8 -14 92 -92 109 -102 9 -4 35
13 74 50 l61 58 -63 68 -63 67 -63 -65z"/>
</g>
</svg>
